# xmcd
#
# Track frame offsets: 
#        150
#        20997
#        34399
#        50484
#        71425
#        85492
#        99262
#        112144
#        125074
#        145528
#        161135
#
# Disc length: 2359 seconds
#
# Revision: 0
# Processed by: cddbd v1.5.1PL0 Copyright (c) Steve Scherf et al.
# Submitted via: ExactAudioCopy v0.95a5
#
DISCID=a009350b
DTITLE=Bob Bogdal - Underneath the Kudzu
DYEAR=2005
DGENRE=Folk
TTITLE0=Cure This Disease
TTITLE1=Preachers Daughter
TTITLE2=Mule Won't Kick
TTITLE3=Underneath the Kudzu
TTITLE4=Workin' Out On The Road
TTITLE5=The Calling
TTITLE6=17 Woman in 13 States
TTITLE7=Circus With No Rings
TTITLE8=Chilly Water
TTITLE9=Pickin' Berries
TTITLE10=South Of The Willows
EXTD=
EXTT0=
EXTT1=
EXTT2=
EXTT3=
EXTT4=
EXTT5=
EXTT6=
EXTT7=
EXTT8=
EXTT9=
EXTT10=
PLAYORDER=
